# xmcd CD database file
#
# Track frame offsets:
#	150
#	21420
#	39302
#	61265
#	83085
#	104160
#	127362
#	149565
#	170042
#	189760
#	210060
#
# Disc length: 3247 seconds
#
# Revision: 3
# Processed by: cddbd v1.5.2PL0 Copyright (c) Steve Scherf et al.
# Submitted via: CDex 1.51
#
DISCID=9c0cad0b
DTITLE=Blues Krewe - Six O'Clock Blues
DYEAR=1995
DGENRE=Blues
TTITLE0=Don't Come Knocking
TTITLE1=Bon Temps Roulé
TTITLE2=No Blues
TTITLE3=Slip Away
TTITLE4=How Long
TTITLE5=Cherry Pie
TTITLE6=Six O'Clock Blues
TTITLE7=What A Wonderful World
TTITLE8=Heartache and Loneliness
TTITLE9=You're My Everything
TTITLE10=The Willie Dog
EXTD=YEAR: 1995
EXTT0=
EXTT1=
EXTT2=
EXTT3=
EXTT4=
EXTT5=
EXTT6=
EXTT7=
EXTT8=
EXTT9=
EXTT10=
PLAYORDER=
